<svg class="svg-icon" style="width: 1em; height: 1em;vertical-align: middle;fill: currentColor;overflow: hidden;" viewBox="0 0 1024 1024" version="1.1" xmlns="http://www.w3.org/2000/svg"><path d="M511.6 224c-160.8 0-287.6 101.2-439.2 266.6-11 12.2-11.2 30.4-0.2 42.6C202 676.6 316.4 800 511.6 800c192.8 0 337.4-155.4 440.2-268 10.6-11.6 11.2-29.2 1-41.4C848 363.6 703 224 511.6 224z m8.8 467.8c-106 4.8-193.2-82.4-188.2-188.2 4.2-92.4 79-167.2 171.4-171.4 106-4.8 193.2 82.4 188.2 188.2-4.2 92.4-79 167.2-171.4 171.4z" fill="" /><path d="M512 418c0-12 2.2-23.4 6.2-33.8-2 0-4-0.2-6.2-0.2-73.8 0-133.2 62.8-127.6 137.8 4.8 62.6 55.2 113 117.8 117.8 75 5.6 137.8-53.8 137.8-127.6 0-2.6-0.2-5.2-0.2-7.8-11.2 5-23.4 7.8-36.4 7.8-50.4 0-91.4-42.2-91.4-94z" fill="" /></svg>