<svg class="svg-icon" style="width: 1em; height: 1em;vertical-align: middle;fill: currentColor;overflow: hidden;" viewBox="0 0 1024 1024" version="1.1" xmlns="http://www.w3.org/2000/svg"><path d="M893.6 349c-20.9-49.3-50.7-93.6-88.7-131.6s-82.3-67.9-131.6-88.7C622.2 107 568 96 512.1 96c-55.9 0-110.1 11-161.2 32.6-49.3 20.9-93.6 50.7-131.6 88.7s-67.9 82.3-88.7 131.6C108.9 400 97.9 454.3 97.9 510.2s11 110.1 32.6 161.2c20.9 49.3 50.7 93.6 88.7 131.6s82.3 67.9 131.6 88.7c51.1 21.6 105.3 32.6 161.2 32.6 55.9 0 110.1-11 161.2-32.6 49.3-20.9 93.6-50.7 131.6-88.7s67.9-82.3 88.7-131.6c21.6-51.1 32.6-105.3 32.6-161.2S915.2 400 893.6 349zM512.1 876.3C310.2 876.3 146 712.1 146 510.2c0-92.3 34.4-176.8 90.9-241.2l516.4 516.4c-64.5 56.5-148.9 90.9-241.2 90.9z m275.1-124.9L270.8 235c64.5-56.6 148.9-90.9 241.2-90.9 201.9 0 366.1 164.2 366.1 366.1 0.1 92.3-34.3 176.7-90.9 241.2z" fill="#AAAAAA" /></svg>