<svg class="svg-icon" style="width: 1em; height: 1em;vertical-align: middle;fill: currentColor;overflow: hidden;" viewBox="0 0 1024 1024" version="1.1" xmlns="http://www.w3.org/2000/svg"><path d="M512 189.643l84.878 171.982a95.183 95.183 0 0 0 71.68 52.078l189.793 27.579-137.336 133.87a95.181 95.181 0 0 0-27.379 84.264l32.421 189.027-169.754-89.245A95.565 95.565 0 0 0 512 748.261a95.558 95.558 0 0 0-44.3 10.936l-169.757 89.246 32.421-189.027a95.184 95.184 0 0 0-27.379-84.264l-137.336-133.87 189.793-27.579a95.184 95.184 0 0 0 71.68-52.078L512 189.643m0-105.313c-11.128 0-22.256 5.797-27.978 17.392L369.731 333.3a31.198 31.198 0 0 1-23.492 17.068L90.676 387.504c-25.591 3.719-35.809 35.168-17.291 53.218l184.927 180.259a31.2 31.2 0 0 1 8.973 27.616l-43.655 254.53c-3.459 20.167 12.564 36.544 30.745 36.544 4.796 0 9.747-1.141 14.524-3.653l228.582-120.173a31.191 31.191 0 0 1 29.038 0l228.582 120.173c4.779 2.513 9.727 3.653 14.524 3.653 18.179 0 34.204-16.378 30.745-36.544l-43.655-254.53a31.2 31.2 0 0 1 8.973-27.616l184.927-180.259c18.518-18.05 8.299-49.499-17.291-53.218l-255.563-37.136a31.201 31.201 0 0 1-23.492-17.068L539.978 101.722C534.256 90.127 523.128 84.33 512 84.33z"  /></svg>